<mxfile host="app.diagrams.net" agent="Mozilla/5.0 (Windows NT 10.0; Win64; x64) AppleWebKit/537.36 (KHTML, like Gecko) Chrome/131.0.0.0 Safari/537.36 Edg/131.0.0.0" version="25.0.3">
  <diagram id="C5RBs43oDa-KdzZeNtuy" name="Page-1">
    <mxGraphModel dx="786" dy="463" grid="1" gridSize="10" guides="1" tooltips="1" connect="1" arrows="1" fold="1" page="1" pageScale="1" pageWidth="827" pageHeight="1169" math="0" shadow="0">
      <root>
        <mxCell id="WIyWlLk6GJQsqaUBKTNV-0" />
        <mxCell id="WIyWlLk6GJQsqaUBKTNV-1" parent="WIyWlLk6GJQsqaUBKTNV-0" />
        <mxCell id="GBRodXUnDaJX6G6KF6Ar-6" value="" style="edgeStyle=orthogonalEdgeStyle;rounded=0;orthogonalLoop=1;jettySize=auto;html=1;" edge="1" parent="WIyWlLk6GJQsqaUBKTNV-1" source="GBRodXUnDaJX6G6KF6Ar-0" target="GBRodXUnDaJX6G6KF6Ar-2">
          <mxGeometry relative="1" as="geometry" />
        </mxCell>
        <mxCell id="GBRodXUnDaJX6G6KF6Ar-0" value="inicio" style="ellipse;whiteSpace=wrap;html=1;aspect=fixed;" vertex="1" parent="WIyWlLk6GJQsqaUBKTNV-1">
          <mxGeometry x="300" y="130" width="80" height="80" as="geometry" />
        </mxCell>
        <mxCell id="GBRodXUnDaJX6G6KF6Ar-1" value="fin" style="ellipse;whiteSpace=wrap;html=1;aspect=fixed;" vertex="1" parent="WIyWlLk6GJQsqaUBKTNV-1">
          <mxGeometry x="300" y="545" width="80" height="80" as="geometry" />
        </mxCell>
        <mxCell id="GBRodXUnDaJX6G6KF6Ar-7" value="" style="edgeStyle=orthogonalEdgeStyle;rounded=0;orthogonalLoop=1;jettySize=auto;html=1;" edge="1" parent="WIyWlLk6GJQsqaUBKTNV-1" source="GBRodXUnDaJX6G6KF6Ar-2" target="GBRodXUnDaJX6G6KF6Ar-4">
          <mxGeometry relative="1" as="geometry" />
        </mxCell>
        <mxCell id="GBRodXUnDaJX6G6KF6Ar-2" value="&#xa;Mostrar mensaje: POr favor ingrese una palabra&#xa;&#xa;" style="shape=parallelogram;perimeter=parallelogramPerimeter;whiteSpace=wrap;html=1;fixedSize=1;labelBackgroundColor=#FFD966;fillColor=#fff2cc;strokeColor=#d6b656;" vertex="1" parent="WIyWlLk6GJQsqaUBKTNV-1">
          <mxGeometry x="280" y="240" width="120" height="60" as="geometry" />
        </mxCell>
        <mxCell id="GBRodXUnDaJX6G6KF6Ar-9" value="" style="edgeStyle=orthogonalEdgeStyle;rounded=0;orthogonalLoop=1;jettySize=auto;html=1;" edge="1" parent="WIyWlLk6GJQsqaUBKTNV-1" source="GBRodXUnDaJX6G6KF6Ar-3" target="GBRodXUnDaJX6G6KF6Ar-1">
          <mxGeometry relative="1" as="geometry" />
        </mxCell>
        <mxCell id="GBRodXUnDaJX6G6KF6Ar-3" value="" style="shape=parallelogram;perimeter=parallelogramPerimeter;whiteSpace=wrap;html=1;fixedSize=1;fillColor=#ffe6cc;strokeColor=#d79b00;" vertex="1" parent="WIyWlLk6GJQsqaUBKTNV-1">
          <mxGeometry x="280" y="450" width="120" height="60" as="geometry" />
        </mxCell>
        <mxCell id="GBRodXUnDaJX6G6KF6Ar-8" value="" style="edgeStyle=orthogonalEdgeStyle;rounded=0;orthogonalLoop=1;jettySize=auto;html=1;" edge="1" parent="WIyWlLk6GJQsqaUBKTNV-1" source="GBRodXUnDaJX6G6KF6Ar-4" target="GBRodXUnDaJX6G6KF6Ar-3">
          <mxGeometry relative="1" as="geometry" />
        </mxCell>
        <mxCell id="GBRodXUnDaJX6G6KF6Ar-4" value="" style="whiteSpace=wrap;html=1;aspect=fixed;fillColor=#dae8fc;strokeColor=#6c8ebf;" vertex="1" parent="WIyWlLk6GJQsqaUBKTNV-1">
          <mxGeometry x="285" y="320" width="110" height="110" as="geometry" />
        </mxCell>
        <mxCell id="GBRodXUnDaJX6G6KF6Ar-10" style="edgeStyle=orthogonalEdgeStyle;rounded=0;orthogonalLoop=1;jettySize=auto;html=1;exitX=0.5;exitY=1;exitDx=0;exitDy=0;entryX=0.658;entryY=1.025;entryDx=0;entryDy=0;entryPerimeter=0;" edge="1" parent="WIyWlLk6GJQsqaUBKTNV-1" source="GBRodXUnDaJX6G6KF6Ar-1" target="GBRodXUnDaJX6G6KF6Ar-1">
          <mxGeometry relative="1" as="geometry" />
        </mxCell>
      </root>
    </mxGraphModel>
  </diagram>
</mxfile>
